<?xml version="1.0" encoding="utf-8"?>
<!-- Generator: Adobe Adobe Illustrator 24.2.0, SVG Export Plug-In . SVG Version: 6.00 Build 0)  -->
<svg version="1.1" xmlns="http://www.w3.org/2000/svg" xmlns:xlink="http://www.w3.org/1999/xlink" x="0px" y="0px"
	 viewBox="0 0 1000 1000" style="enable-background:new 0 0 1000 1000;" xml:space="preserve">
<style type="text/css">
	.st0{fill:#163C40;stroke:#000000;stroke-miterlimit:10;}
	.st1{fill:#BFD9D1;}
	.st2{fill:#C8D9C5;stroke:#000000;stroke-miterlimit:10;}
	.st3{fill:#050D0B;}
	.st4{fill:#A3BFBA;stroke:#000000;stroke-miterlimit:10;}
	.st5{fill:#0A0D0C;stroke:#000000;stroke-miterlimit:10;}
	.st6{fill:#D7D9D8;}
	.st7{fill:#163C40;}
</style>
<g id="Logo_1">
</g>
<g id="Layer_2">
</g>
<g id="Layer_3">
</g>
<g id="Layer_4">
</g>
<g id="Layer_5">
</g>
<g id="Layer_6">
</g>
<g id="Layer_7">
</g>
<g id="Layer_8">
	<g>
		<path class="st7" d="M763.11,554.53c0,0-239.59,383.65-541.91,428.22c0,0-73.01,13.69-134.87-14.82
			C64,957.64,27.55,926.53,24.05,902.2c-4.58-31.79-10.21-75.4,32.31-127.88c0,0,4.96,64.43,52.35,86.82
			c2.67,1.26,7.35,3.61,9.34,4.62c0.76,0.38,1.51,0.69,2.32,0.94c7.69,2.38,47.29,12.2,114.09-12.79
			c0,0-202.99-148.12-202.99-391.66c0-12.98,1.24-52.9,3.55-66.17c3.94-22.62,41.39-287.04,373.76-364.51
			c0,0,49.61-17.27-15.16,119.37c0,0-41.15,84.73-92.84,136.42c0,0,100.48-61.98,137.65-164.43c0,0,38.54-72.59,16.69-97.46
			c0,0,193.96-19.38,335.74,141.97c0,0,21.97,167.24-264.75,494.98c0,0,256.41-239.7,297.37-390.42c0,0,48.74-131.6,13.43-166.91
			c0,0-9.09-8.95-67.15-25.9c0,0-0.48-49.97,111.27-65.23c0,0,72.49,4.08,92.09,79.62c0,0,33.46,98.63-58.51,266.67
			c0,0,82.8,230.78-122.51,454.53c-14.05,15.31-60.29,56.92-78.83,66.29c-76.06,38.41-135.16,72.8-247.96,40.64
			C465.31,921.71,729.45,749.6,763.11,554.53z"/>
	</g>
</g>
</svg>
